<mxfile host="app.diagrams.net" modified="2021-07-16T12:56:02.415Z" agent="5.0 (Windows)" etag="YNcw11k7-yJxXl--6rFi" version="14.7.6" type="github">
  <diagram id="ZuXI9lpOAoWPFJ6XL-Pz" name="Page-1">
    <mxGraphModel dx="1038" dy="603" grid="1" gridSize="10" guides="1" tooltips="1" connect="1" arrows="1" fold="1" page="1" pageScale="1" pageWidth="850" pageHeight="1100" math="0" shadow="0">
      <root>
        <mxCell id="0" />
        <mxCell id="1" parent="0" />
        <mxCell id="hbxPe9zIKeEGYbhAQwGU-1" value="PLAYER" style="rounded=0;whiteSpace=wrap;html=1;" vertex="1" parent="1">
          <mxGeometry x="80" y="320" width="120" height="60" as="geometry" />
        </mxCell>
        <mxCell id="hbxPe9zIKeEGYbhAQwGU-2" value="GAME PLATFORM" style="ellipse;whiteSpace=wrap;html=1;" vertex="1" parent="1">
          <mxGeometry x="320" y="310" width="120" height="80" as="geometry" />
        </mxCell>
        <mxCell id="hbxPe9zIKeEGYbhAQwGU-3" value="" style="endArrow=classic;html=1;exitX=1;exitY=0.25;exitDx=0;exitDy=0;entryX=0.058;entryY=0.288;entryDx=0;entryDy=0;entryPerimeter=0;" edge="1" parent="1" source="hbxPe9zIKeEGYbhAQwGU-1" target="hbxPe9zIKeEGYbhAQwGU-2">
          <mxGeometry width="50" height="50" relative="1" as="geometry">
            <mxPoint x="400" y="340" as="sourcePoint" />
            <mxPoint x="320" y="240" as="targetPoint" />
          </mxGeometry>
        </mxCell>
        <mxCell id="hbxPe9zIKeEGYbhAQwGU-4" value="" style="endArrow=classic;html=1;entryX=1;entryY=0.75;entryDx=0;entryDy=0;exitX=0;exitY=0.688;exitDx=0;exitDy=0;exitPerimeter=0;" edge="1" parent="1" source="hbxPe9zIKeEGYbhAQwGU-2" target="hbxPe9zIKeEGYbhAQwGU-1">
          <mxGeometry width="50" height="50" relative="1" as="geometry">
            <mxPoint x="330" y="365" as="sourcePoint" />
            <mxPoint x="399.96000000000004" y="317.03999999999996" as="targetPoint" />
          </mxGeometry>
        </mxCell>
        <mxCell id="hbxPe9zIKeEGYbhAQwGU-5" value="PLAYER" style="rounded=0;whiteSpace=wrap;html=1;" vertex="1" parent="1">
          <mxGeometry x="570" y="320" width="120" height="60" as="geometry" />
        </mxCell>
        <mxCell id="hbxPe9zIKeEGYbhAQwGU-6" value="" style="endArrow=classic;html=1;exitX=0;exitY=0.25;exitDx=0;exitDy=0;entryX=0.992;entryY=0.3;entryDx=0;entryDy=0;entryPerimeter=0;" edge="1" parent="1" source="hbxPe9zIKeEGYbhAQwGU-5" target="hbxPe9zIKeEGYbhAQwGU-2">
          <mxGeometry width="50" height="50" relative="1" as="geometry">
            <mxPoint x="790" y="600" as="sourcePoint" />
            <mxPoint x="779.96" y="567.04" as="targetPoint" />
          </mxGeometry>
        </mxCell>
        <mxCell id="hbxPe9zIKeEGYbhAQwGU-7" value="" style="endArrow=classic;html=1;exitX=1;exitY=0.688;exitDx=0;exitDy=0;exitPerimeter=0;entryX=0;entryY=0.75;entryDx=0;entryDy=0;" edge="1" parent="1" target="hbxPe9zIKeEGYbhAQwGU-5" source="hbxPe9zIKeEGYbhAQwGU-2">
          <mxGeometry width="50" height="50" relative="1" as="geometry">
            <mxPoint x="510" y="480" as="sourcePoint" />
            <mxPoint x="560" y="420" as="targetPoint" />
          </mxGeometry>
        </mxCell>
        <mxCell id="hbxPe9zIKeEGYbhAQwGU-8" value="Authenticate User" style="text;html=1;strokeColor=none;fillColor=none;align=center;verticalAlign=middle;whiteSpace=wrap;rounded=0;" vertex="1" parent="1">
          <mxGeometry x="240" y="297.5" width="40" height="22.5" as="geometry" />
        </mxCell>
        <mxCell id="hbxPe9zIKeEGYbhAQwGU-10" value="Plays with computer/mobile" style="text;html=1;strokeColor=none;fillColor=none;align=center;verticalAlign=middle;whiteSpace=wrap;rounded=0;" vertex="1" parent="1">
          <mxGeometry x="480" y="295" width="80" height="25" as="geometry" />
        </mxCell>
        <mxCell id="hbxPe9zIKeEGYbhAQwGU-11" value="Responds to User" style="text;html=1;strokeColor=none;fillColor=none;align=center;verticalAlign=middle;whiteSpace=wrap;rounded=0;" vertex="1" parent="1">
          <mxGeometry x="480" y="370" width="70" height="20" as="geometry" />
        </mxCell>
      </root>
    </mxGraphModel>
  </diagram>
</mxfile>
